<svg height="682pt" viewBox="-48 -21 682 682.66669" width="682pt" xmlns="http://www.w3.org/2000/svg"><path d="m522.425781 497.609375c-30.40625-11-70.300781-19.488281-116.40625-24.839844 4.453125-4.511719 8.851563-9.082031 13.167969-13.722656 41.269531-44.359375 68.75-87.734375 84.003906-132.59375 32.78125-96.351563.582032-215.703125-74.890625-277.617187-38.394531-31.492188-87.265625-48.835938-137.613281-48.835938-.003906 0 0 0 0 0-50.347656 0-99.222656 17.34375-137.613281 48.835938-35.742188 29.324218-63.265625 72.414062-77.5 121.339843-14.0625 48.347657-14.382813 99.457031-.90625 143.921875 18.023437 59.480469 56.734375 111.871094 102.273437 158.695313-45.945312 5.351562-85.714844 13.8125-116.058594 24.777343-41.394531 14.945313-62.382812 33.664063-62.382812 55.640626 0 26.828124 30.796875 48.578124 91.535156 64.640624 53.996094 14.28125 125.585938 22.148438 201.5625 22.148438 75.976563 0 147.558594-7.867188 201.5625-22.148438 60.734375-16.0625 91.53125-37.8125 91.53125-64.640624 0-21.957032-20.945312-40.664063-62.265625-55.601563zm-422.644531-320.390625c12.820312-44.09375 37.425781-82.765625 69.277344-108.898438 33.898437-27.808593 77.09375-43.121093 121.628906-43.121093s87.730469 15.316406 121.625 43.125c32.960938 27.035156 57.847656 67.738281 70.074219 114.609375 12.042969 46.136718 10.957031 94.230468-3.050781 135.410156-31.578126 92.824219-114.640626 162.027344-188.648438 223.03125-78.425781-64.726562-163.6875-141.472656-191.902344-234.582031-12.078125-39.847657-11.726562-85.863281.996094-129.574219 12.820312-44.09375-12.722656 43.710938 0 0zm386.953125 416.171875c-51.949219 13.765625-121.242187 21.371094-195.109375 21.410156-73.863281.035157-143.164062-7.496093-195.125-21.210937-57.457031-15.167969-72.792969-32.425782-72.800781-40.238282-.007813-16.746093 56.101562-46.414062 176.441406-57.59375 25.097656 23.792969 51.457031 46.097657 77.03125 67.140626 10.480469 8.625 16.582031 8.605468 27.050781-.015626 24.886719-20.539062 52.011719-42.929687 78.144532-67.277343 120.785156 11.015625 177.113281 40.707031 177.125 57.472656 0 7.804687-15.316407 25.085937-72.757813 40.3125zm0 0"/><path d="m368.40625 356.710938c13.976562-8.15625 1.300781-29.933594-12.699219-21.769532-19.652343 11.464844-42.148437 17.523438-65.042969 17.523438-71.300781 0-129.300781-58.003906-129.300781-129.296875 0-71.296875 58-129.300781 129.300781-129.300781 71.292969 0 129.296876 58.003906 129.296876 129.300781 0 14.558593-2.398438 28.839843-7.125 42.449219-5.308594 15.28125 18.492187 23.570312 23.808593 8.269531 5.65625-16.277344 8.519531-33.34375 8.519531-50.722657 0-85.191406-69.308593-154.5-154.5-154.5-85.191406 0-154.503906 69.308594-154.503906 154.5 0 85.195313 69.3125 154.5 154.503906 154.5 27.351563 0 54.238282-7.242187 77.742188-20.953124zm0 0"/><path d="m400.585938 301.464844c-6.851563 0-12.613282 5.742187-12.613282 12.601562 0 6.851563 5.765625 12.605469 12.613282 12.597656 6.65625 0 12.28125-5.414062 12.578124-12.050781.3125-7.050781-5.507812-13.148437-12.578124-13.148437zm0 0"/></svg>